<svg xmlns="http://www.w3.org/2000/svg" xmlns:xlink="http://www.w3.org/1999/xlink" viewBox="0 0 543.59 841.43"><defs><style>.cls-1{fill:url(#linear-gradient);}</style><linearGradient id="linear-gradient" x1="22.62" y1="103.3" x2="570.12" y2="711.36" gradientUnits="userSpaceOnUse"><stop offset="0" stop-color="#01a0c6"/><stop offset="1" stop-color="#b781f4"/></linearGradient></defs><title>Asset 1</title><g id="Layer_2" data-name="Layer 2"><g id="Layer_1-2" data-name="Layer 1"><path class="cls-1" d="M389.14,51.46C300.8-15.6,176.46-17.29,86.63,47.41c-112.46,81-116.07,242-7,324,10,7.57,21.22,13.65,33.47,21.45-8.32,7.63-15.75,13.51-22.12,20.39-23.49,25.39-48.78,49.48-69.32,77.1-21.43,28.88-15.83,59.89,9.92,85,24,23.37,54,34.16,86.42,36.16,76,4.65,152.16,6.77,228.11,12a807.88,807.88,0,0,1,114.07,15.78c27.19,5.88,38.46,26.38,36.17,53.86-2.27,27.22-7.4,54-21.46,77.85-11,18.75-23.55,36.65-35.62,55.24,7.34-5.6,14.83-10.67,21.63-16.55,32.87-28.43,60.69-60.84,73.28-103.34,15-50.63,6-96.83-32.5-134.12-29.17-28.22-66.31-40.82-106.35-43-66.06-3.55-132.23-5.16-198.25-9.06-27.88-1.64-55.67-6.22-83.24-11C99.42,506.7,92.88,496.23,93.06,481c.31-28.34,17-47.18,35.25-65.89,10-10.23,19.7-11.07,33-7.68,55.24,14,110.28,12.88,164.46-6.17C434.2,363.2,486.89,265.05,456.51,155.06c-2.72-9.84-11.36-36.54-25-57C414.65,72.7,392.24,53.8,389.14,51.46Zm-49.39,272c-32.18,79.65-140,84.7-187.06,19.62-27.85-38.52-38.75-82.38-41.71-128.47-2.29-36.08-2.18-72.34,10.07-107.39,15.4-44.08,43.2-73.88,91.47-78.84,49-5,84.44,17.61,108.79,58.65,26.33,44.34,33.58,93.53,34,144.19C355.12,262.82,351.8,293.65,339.75,323.48Z"/><path d="M513.46,780.91a30.26,30.26,0,1,0,30.13,30.3A30.22,30.22,0,0,0,513.46,780.91Zm-.11,56.92A26.67,26.67,0,1,1,540,811.23,26.63,26.63,0,0,1,513.35,837.83Z"/><path d="M532.91,801v20.44h-3.68V806.1l-.35-.05q-2,7.73-3.94,15.46h-4l-3.9-15.46-.24,0v15.36H513V800.93h6.19c1.2,4.5,2.42,9.05,3.63,13.6h.27c1-3.8,2-7.6,3-11.42.6-2.31.59-2.31,3-2.31,1.15,0,2.3,0,3.45,0A1.85,1.85,0,0,1,532.91,801Z"/><polygon points="510.19 800.89 510.19 804.23 504.15 804.23 504.15 821.49 500.05 821.49 500.05 804.28 493.98 804.28 493.98 800.89 510.19 800.89"/></g></g></svg>