<?xml version="1.0" encoding="utf-8"?>
<!-- Generator: Adobe Illustrator 24.0.0, SVG Export Plug-In . SVG Version: 6.00 Build 0)  -->
<svg version="1.1" id="Layer_1" xmlns="http://www.w3.org/2000/svg" xmlns:xlink="http://www.w3.org/1999/xlink" x="0px" y="0px"
	 viewBox="0 0 841.89 595.28" style="enable-background:new 0 0 841.89 595.28;" xml:space="preserve">
<style type="text/css">
	.st0{fill:url(#SVGID_1_);}
</style>
<g>
	<linearGradient id="SVGID_1_" gradientUnits="userSpaceOnUse" x1="340.3588" y1="185.9835" x2="531.2465" y2="397.9858">
		<stop  offset="0" style="stop-color:#01A0C6"/>
		<stop  offset="1" style="stop-color:#B781F4"/>
	</linearGradient>
	<path class="st0" d="M468.15,167.91c-30.8-23.38-74.15-23.97-105.47-1.41c-39.21,28.25-40.47,84.36-2.46,112.95
		c3.5,2.64,7.4,4.76,11.67,7.48c-2.9,2.66-5.49,4.71-7.71,7.11c-8.19,8.85-17.01,17.25-24.17,26.88
		c-7.47,10.07-5.52,20.88,3.46,29.63c8.37,8.15,18.81,11.91,30.13,12.61c26.5,1.62,53.05,2.36,79.53,4.18
		c13.33,0.93,26.72,2.68,39.77,5.5c9.48,2.05,13.41,9.2,12.61,18.78c-0.79,9.49-2.58,18.82-7.48,27.14
		c-3.85,6.54-8.21,12.78-12.42,19.26c2.56-1.95,5.17-3.72,7.54-5.77c11.46-9.91,21.16-21.21,25.55-36.03
		c5.23-17.65,2.09-33.76-11.33-46.76c-10.17-9.84-23.12-14.23-37.08-14.98c-23.03-1.24-46.1-1.8-69.12-3.16
		c-9.72-0.57-19.41-2.17-29.02-3.83c-5.01-0.86-7.29-4.51-7.23-9.81c0.11-9.88,5.94-16.45,12.29-22.97
		c3.48-3.57,6.87-3.86,11.52-2.68c19.26,4.88,38.45,4.49,57.34-2.15c37.79-13.28,56.16-47.5,45.57-85.85
		c-0.95-3.43-3.96-12.74-8.71-19.86C477.04,175.32,469.23,168.73,468.15,167.91z M450.93,262.75
		c-11.22,27.77-48.81,29.53-65.22,6.84c-9.71-13.43-13.51-28.72-14.54-44.79c-0.8-12.58-0.76-25.22,3.51-37.44
		c5.37-15.37,15.06-25.76,31.89-27.49c17.08-1.75,29.44,6.14,37.93,20.45c9.18,15.46,11.71,32.61,11.87,50.27
		C456.29,241.6,455.13,252.35,450.93,262.75z"/>
</g>
<path d="M473.2,216.35"/>
<path d="M417.37,143c0.5,0.64,0.8,1.45,0.8,2.34c0,2.13-1.73,3.85-3.85,3.85c-2.13,0-3.85-1.72-3.85-3.85c0-0.89,0.3-1.7,0.8-2.34
	c-1.78-3.08-3.38-6.08-5.32-8.85c-6.12-8.72-16.18-11.27-25.25-8.42c-5.5,1.73-10.82,4.11-16.06,6.52
	c-4.01,1.85-7.96,3.94-11.6,6.41c-4.59,3.13-11.16,3.76-16.21,0.78c1.12,0.06,2.04,0.3,2.86,0.12c2.67-0.55,5.99-0.47,7.81-2.05
	c3.8-3.31,7.03-7.34,10.08-11.38c6.06-8.01,11.37-16.78,22.43-18.69c-0.48-4.3-2.16-5.22-9.22-5.4c2.31-0.67,4.65-1.18,7.02-1.58
	c8.66-1.48,17.13-1.44,25.43,2.26c7.17,3.2,11.68,8.62,13.68,15.84C419.14,126.58,418.76,134.79,417.37,143z"/>
</svg>
