<svg xmlns="http://www.w3.org/2000/svg" xmlns:xlink="http://www.w3.org/1999/xlink" viewBox="0 0 543.59 986.05"><defs><style>.cls-1{fill:url(#linear-gradient);}</style><linearGradient id="linear-gradient" x1="22.62" y1="247.91" x2="570.12" y2="855.98" gradientUnits="userSpaceOnUse"><stop offset="0" stop-color="#01a0c6"/><stop offset="1" stop-color="#b781f4"/></linearGradient></defs><title>Asset 2</title><g id="Layer_2" data-name="Layer 2"><g id="Layer_1-2" data-name="Layer 1"><path class="cls-1" d="M389.14,196.07c-88.34-67-212.68-68.75-302.51-4-112.46,81-116.07,242-7,324,10,7.58,21.22,13.66,33.47,21.46-8.32,7.63-15.75,13.51-22.12,20.39-23.49,25.38-48.78,49.48-69.32,77.1-21.43,28.88-15.83,59.89,9.92,85,24,23.38,54,34.16,86.42,36.17,76,4.65,152.16,6.77,228.11,12a809.32,809.32,0,0,1,114.07,15.77c27.19,5.88,38.46,26.39,36.17,53.87-2.27,27.22-7.4,54-21.46,77.84-11,18.76-23.55,36.66-35.62,55.24,7.34-5.59,14.83-10.67,21.63-16.55,32.87-28.42,60.69-60.83,73.28-103.34,15-50.62,6-96.83-32.5-134.11-29.17-28.23-66.31-40.82-106.35-43-66.06-3.56-132.23-5.16-198.25-9.06-27.88-1.64-55.67-6.23-83.24-11-14.37-2.47-20.91-12.93-20.73-28.14.31-28.33,17-47.18,35.25-65.88,10-10.24,19.7-11.07,33-7.69,55.24,14,110.28,12.88,164.46-6.16,108.39-38.09,161.08-136.24,130.7-246.24-2.72-9.84-11.36-36.54-25-57C414.65,217.32,392.24,198.42,389.14,196.07Zm-49.39,272c-32.18,79.65-140,84.7-187.06,19.62-27.85-38.52-38.75-82.37-41.71-128.46-2.29-36.09-2.18-72.34,10.07-107.39,15.4-44.08,43.2-73.88,91.47-78.85,49-5,84.44,17.61,108.79,58.66,26.33,44.34,33.58,93.53,34,144.18C355.12,407.43,351.8,438.26,339.75,468.09Z"/><path d="M243.49,124.63a10.8,10.8,0,0,1,2.3,6.71,11,11,0,0,1-22.09,0,10.8,10.8,0,0,1,2.3-6.71c-5.11-8.84-9.7-17.44-15.26-25.39-17.55-25-46.41-32.32-72.42-24.15-15.78,5-31,11.79-46.07,18.7A233,233,0,0,0,59,112.18c-13.16,9-32,10.78-46.49,2.24,3.21.17,5.85.86,8.2.34,7.66-1.58,17.18-1.35,22.4-5.88C54,99.39,63.26,87.83,72,76.24c17.39-23,32.62-48.13,64.34-53.61-1.38-12.33-6.2-15-26.45-15.48A178.13,178.13,0,0,1,130,2.61C154.87-1.63,179.16-1.52,203,9.1c20.56,9.17,33.5,24.72,39.23,45.43C248.57,77.53,247.48,101.08,243.49,124.63Z"/><path d="M513.46,925.53a30.26,30.26,0,1,0,30.13,30.3A30.21,30.21,0,0,0,513.46,925.53Zm-.11,56.92A26.67,26.67,0,1,1,540,955.85,26.63,26.63,0,0,1,513.35,982.45Z"/><path d="M532.91,945.62v20.44h-3.68V950.72l-.35-.05q-2,7.73-3.94,15.46h-4l-3.9-15.46-.24,0v15.36H513V945.54h6.19c1.2,4.5,2.42,9.06,3.63,13.61h.27c1-3.8,2-7.61,3-11.42.6-2.31.59-2.31,3-2.31,1.15,0,2.3,0,3.45,0A1.32,1.32,0,0,1,532.91,945.62Z"/><polygon points="510.19 945.51 510.19 948.84 504.15 948.84 504.15 966.1 500.05 966.1 500.05 948.9 493.98 948.9 493.98 945.51 510.19 945.51"/></g></g></svg>